<mxfile host="app.diagrams.net" modified="2024-01-24T09:01:14.984Z" agent="Mozilla/5.0 (Windows NT 10.0; Win64; x64) AppleWebKit/537.36 (KHTML, like Gecko) Chrome/120.0.0.0 Safari/537.36" version="21.6.6" etag="YnP8CM_qxbPe93CnkCC8" type="github">
  <diagram name="第 1 页" id="lKKhDpbklQiAtidzG0zw">
    <mxGraphModel>
      <root>
        <mxCell id="0" />
        <mxCell id="1" parent="0" />
      </root>
    </mxGraphModel>
  </diagram>
</mxfile>
